<?xml version="1.0" encoding="UTF-8" standalone="no"?>
<!DOCTYPE svg PUBLIC "-//W3C//DTD SVG 1.1//EN" "http://www.w3.org/Graphics/SVG/1.1/DTD/svg11.dtd">
<svg width="100%" height="100%" viewBox="0 0 756 756" version="1.1" xmlns="http://www.w3.org/2000/svg" xmlns:xlink="http://www.w3.org/1999/xlink" xml:space="preserve" xmlns:serif="http://www.serif.com/" style="fill-rule:evenodd;clip-rule:evenodd;stroke-linecap:round;stroke-linejoin:round;stroke-miterlimit:1.5;">
    <g transform="matrix(1,0,0,1,-3689.31,-2607.81)">
        <g transform="matrix(2.02492,0,0,2.35797,0,0)">
            <g id="fields" transform="matrix(0.493847,0,0,0.424094,1741.32,651.948)">
                <g id="water" transform="matrix(2.04175,0,0,2.04175,-472.758,465.812)">
                    <rect x="311.512" y="296.179" width="370.224" height="370.224" style="fill:rgb(209,178,91);"/>
                </g>
                <g transform="matrix(1,0,0,1,-3034.85,-458.312)">
                    <path d="M3292.61,1835.93L3505.21,1623.34" style="fill:none;stroke:rgb(238,237,159);stroke-width:33.33px;"/>
                </g>
                <g transform="matrix(-1,-1.22465e-16,1.22465e-16,-1,4117.3,3355.29)">
                    <path d="M3292.61,1835.93L3505.21,1623.34" style="fill:none;stroke:rgb(238,237,159);stroke-width:33.33px;"/>
                </g>
                <g transform="matrix(1,0,0,1,-3034.85,-458.312)">
                    <path d="M3292.61,1977.67L3646.94,1623.34" style="fill:none;stroke:rgb(238,237,159);stroke-width:33.33px;"/>
                </g>
                <g transform="matrix(-1,-1.22465e-16,1.22465e-16,-1,4117.3,3355.29)">
                    <path d="M3292.61,1977.67L3646.94,1623.34" style="fill:none;stroke:rgb(238,237,159);stroke-width:33.33px;"/>
                </g>
                <g transform="matrix(1,0,0,1,-3034.85,-458.312)">
                    <path d="M3292.61,2119.4L3788.67,1623.34" style="fill:none;stroke:rgb(238,237,159);stroke-width:33.33px;"/>
                </g>
                <g transform="matrix(-1,-1.22465e-16,1.22465e-16,-1,4117.3,3355.29)">
                    <path d="M3292.61,2119.4L3788.67,1623.34" style="fill:none;stroke:rgb(238,237,159);stroke-width:33.33px;"/>
                </g>
            </g>
        </g>
    </g>
</svg>
