<?xml version="1.0" encoding="UTF-8" standalone="no"?>
<!DOCTYPE svg PUBLIC "-//W3C//DTD SVG 1.1//EN" "http://www.w3.org/Graphics/SVG/1.1/DTD/svg11.dtd">
<svg width="100%" height="100%" viewBox="0 0 756 756" version="1.1" xmlns="http://www.w3.org/2000/svg" xmlns:xlink="http://www.w3.org/1999/xlink" xml:space="preserve" xmlns:serif="http://www.serif.com/" style="fill-rule:evenodd;clip-rule:evenodd;stroke-linecap:round;stroke-linejoin:round;stroke-miterlimit:1.5;">
    <g transform="matrix(1,0,0,1,-3694.43,-893.335)">
        <g transform="matrix(2.02492,0,0,2.35797,0,0)">
            <g id="forest" transform="matrix(0.493847,0,0,0.424094,1212.04,-75.1502)">
                <g id="water" transform="matrix(2.04175,0,0,2.04175,604.128,465.812)">
                    <rect x="311.512" y="296.179" width="370.224" height="370.224" style="fill:rgb(82,147,74);"/>
                </g>
                <g transform="matrix(0.5,0,0,0.5,174.864,553.177)">
                    <path d="M3217.2,1595.68C3135.73,1574.68 3075.47,1500.66 3075.47,1412.67C3075.47,1308.37 3160.15,1223.7 3264.45,1223.7C3368.74,1223.7 3453.42,1308.37 3453.42,1412.67C3453.42,1500.66 3393.16,1574.68 3311.69,1595.68L3311.69,1790.63L3217.2,1790.63L3217.2,1595.68Z" style="fill:none;stroke:rgb(199,237,197);stroke-width:66.67px;"/>
                </g>
                <g transform="matrix(0.5,0,0,0.5,-203.089,553.177)">
                    <path d="M3217.2,1595.68C3135.73,1574.68 3075.47,1500.66 3075.47,1412.67C3075.47,1308.37 3160.15,1223.7 3264.45,1223.7C3368.74,1223.7 3453.42,1308.37 3453.42,1412.67C3453.42,1500.66 3393.16,1574.68 3311.69,1595.68L3311.69,1790.63L3217.2,1790.63L3217.2,1595.68Z" style="fill:none;stroke:rgb(199,237,197);stroke-width:66.67px;"/>
                </g>
                <g transform="matrix(0.5,0,0,0.5,-14.1129,836.641)">
                    <path d="M3217.2,1595.68C3135.73,1574.68 3075.47,1500.66 3075.47,1412.67C3075.47,1308.37 3160.15,1223.7 3264.45,1223.7C3368.74,1223.7 3453.42,1308.37 3453.42,1412.67C3453.42,1500.66 3393.16,1574.68 3311.69,1595.68L3311.69,1790.63L3217.2,1790.63L3217.2,1595.68Z" style="fill:none;stroke:rgb(199,237,197);stroke-width:66.67px;"/>
                </g>
            </g>
        </g>
    </g>
</svg>
