<?xml version="1.0" encoding="UTF-8" standalone="no"?>
<!DOCTYPE svg PUBLIC "-//W3C//DTD SVG 1.1//EN" "http://www.w3.org/Graphics/SVG/1.1/DTD/svg11.dtd">
<svg width="100%" height="100%" viewBox="0 0 677 756" version="1.1" xmlns="http://www.w3.org/2000/svg" xmlns:xlink="http://www.w3.org/1999/xlink" xml:space="preserve" xmlns:serif="http://www.serif.com/" style="fill-rule:evenodd;clip-rule:evenodd;stroke-linejoin:round;stroke-miterlimit:2;">
    <g transform="matrix(1,0,0,1,-683.625,-2442.63)">
        <g transform="matrix(2.02492,0,0,2.35797,0,0)">
            <g transform="matrix(504.635,0,0,433.358,315.923,1356.48)">
                <path d="M0.678,-0.74L0.688,-0.717C0.664,-0.706 0.647,-0.694 0.635,-0.683C0.624,-0.672 0.616,-0.66 0.612,-0.646C0.607,-0.632 0.605,-0.611 0.605,-0.584C0.605,-0.575 0.605,-0.563 0.605,-0.549L0.614,-0.184C0.614,-0.144 0.619,-0.118 0.626,-0.105C0.632,-0.097 0.639,-0.092 0.646,-0.092C0.656,-0.092 0.67,-0.102 0.69,-0.121L0.705,-0.102L0.614,-0.025L0.583,0C0.558,-0.012 0.539,-0.028 0.529,-0.048C0.518,-0.068 0.512,-0.099 0.51,-0.143L0.322,0C0.216,-0.069 0.145,-0.104 0.106,-0.104C0.097,-0.104 0.089,-0.101 0.083,-0.095C0.078,-0.091 0.075,-0.085 0.075,-0.077C0.075,-0.069 0.078,-0.059 0.084,-0.049C0.093,-0.036 0.097,-0.027 0.097,-0.022C0.097,-0.016 0.094,-0.011 0.09,-0.007C0.085,-0.002 0.08,0 0.073,0C0.065,0 0.059,-0.003 0.054,-0.01C0.047,-0.019 0.043,-0.03 0.043,-0.044C0.043,-0.06 0.047,-0.077 0.056,-0.096C0.065,-0.116 0.079,-0.137 0.096,-0.16C0.1,-0.165 0.103,-0.169 0.106,-0.173L0.176,-0.269C0.129,-0.304 0.095,-0.338 0.076,-0.371C0.057,-0.403 0.048,-0.44 0.048,-0.48C0.048,-0.527 0.06,-0.57 0.084,-0.61C0.108,-0.65 0.144,-0.682 0.192,-0.705C0.24,-0.728 0.289,-0.74 0.34,-0.74C0.418,-0.74 0.493,-0.713 0.565,-0.659C0.582,-0.677 0.599,-0.692 0.616,-0.704C0.632,-0.716 0.653,-0.728 0.678,-0.74ZM0.438,-0.626C0.397,-0.647 0.356,-0.657 0.315,-0.657C0.272,-0.657 0.231,-0.647 0.193,-0.628C0.155,-0.609 0.127,-0.585 0.108,-0.555C0.089,-0.524 0.08,-0.494 0.08,-0.462C0.08,-0.395 0.116,-0.336 0.188,-0.285L0.351,-0.508C0.327,-0.521 0.305,-0.528 0.285,-0.528C0.258,-0.528 0.236,-0.515 0.219,-0.49C0.216,-0.485 0.212,-0.482 0.209,-0.482C0.207,-0.482 0.205,-0.483 0.203,-0.485C0.202,-0.487 0.201,-0.489 0.201,-0.492C0.201,-0.502 0.206,-0.516 0.216,-0.534C0.226,-0.552 0.241,-0.567 0.261,-0.578C0.281,-0.589 0.303,-0.594 0.325,-0.594C0.347,-0.594 0.373,-0.589 0.402,-0.578L0.438,-0.626ZM0.501,-0.576C0.492,-0.587 0.485,-0.593 0.482,-0.596C0.48,-0.598 0.472,-0.604 0.458,-0.614L0.244,-0.323L0.507,-0.323L0.501,-0.576ZM0.192,-0.252L0.148,-0.191L0.396,-0.084L0.511,-0.17L0.509,-0.252L0.192,-0.252Z" style="fill:rgb(167,129,103);fill-rule:nonzero;"/>
            </g>
        </g>
    </g>
</svg>
