<?xml version="1.0" encoding="UTF-8" standalone="no"?>
<!DOCTYPE svg PUBLIC "-//W3C//DTD SVG 1.1//EN" "http://www.w3.org/Graphics/SVG/1.1/DTD/svg11.dtd">
<svg width="100%" height="100%" viewBox="0 0 678 756" version="1.1" xmlns="http://www.w3.org/2000/svg" xmlns:xlink="http://www.w3.org/1999/xlink" xml:space="preserve" xmlns:serif="http://www.serif.com/" style="fill-rule:evenodd;clip-rule:evenodd;stroke-linejoin:round;stroke-miterlimit:2;">
    <g transform="matrix(1,0,0,1,-636.98,-3747.77)">
        <g transform="matrix(2.02492,0,0,2.35797,0,0)">
            <g transform="matrix(445.526,0,0,382.598,298.255,1872.43)">
                <path d="M0.657,-0.74C0.691,-0.731 0.716,-0.717 0.733,-0.7C0.758,-0.675 0.77,-0.647 0.77,-0.614C0.77,-0.588 0.761,-0.561 0.741,-0.533C0.722,-0.504 0.687,-0.471 0.636,-0.432C0.68,-0.428 0.712,-0.421 0.732,-0.411C0.753,-0.4 0.767,-0.387 0.775,-0.371C0.783,-0.354 0.787,-0.327 0.787,-0.289L0.787,-0.121C0.671,-0.108 0.573,-0.068 0.491,0C0.463,-0.02 0.436,-0.033 0.41,-0.042C0.369,-0.055 0.325,-0.062 0.278,-0.062C0.221,-0.062 0.175,-0.05 0.14,-0.027C0.116,-0.011 0.104,0.004 0.104,0.02C0.104,0.026 0.108,0.035 0.115,0.046C0.121,0.058 0.125,0.067 0.125,0.074C0.125,0.08 0.122,0.086 0.117,0.091C0.112,0.096 0.107,0.098 0.101,0.098C0.092,0.098 0.084,0.094 0.076,0.085C0.069,0.077 0.065,0.065 0.065,0.052C0.065,0.039 0.07,0.025 0.079,0.009C0.088,-0.008 0.107,-0.031 0.137,-0.061C0.167,-0.091 0.186,-0.113 0.194,-0.127C0.202,-0.141 0.207,-0.154 0.207,-0.167C0.207,-0.181 0.202,-0.193 0.192,-0.202C0.183,-0.211 0.17,-0.216 0.156,-0.216C0.143,-0.216 0.132,-0.212 0.123,-0.205C0.115,-0.197 0.109,-0.185 0.106,-0.167L0.088,-0.168C0.088,-0.174 0.088,-0.178 0.088,-0.181C0.088,-0.209 0.097,-0.231 0.115,-0.249C0.134,-0.266 0.158,-0.275 0.189,-0.275C0.193,-0.275 0.198,-0.275 0.206,-0.274C0.205,-0.306 0.201,-0.329 0.191,-0.344C0.177,-0.367 0.155,-0.378 0.126,-0.378C0.108,-0.378 0.092,-0.374 0.078,-0.364C0.07,-0.359 0.063,-0.349 0.055,-0.334L0.037,-0.341C0.04,-0.372 0.052,-0.397 0.073,-0.415C0.094,-0.434 0.121,-0.443 0.153,-0.443C0.165,-0.443 0.18,-0.442 0.198,-0.44C0.2,-0.486 0.204,-0.519 0.211,-0.54C0.218,-0.561 0.23,-0.58 0.247,-0.598C0.264,-0.615 0.296,-0.639 0.343,-0.67C0.299,-0.655 0.261,-0.648 0.23,-0.648C0.21,-0.648 0.184,-0.652 0.152,-0.66C0.133,-0.664 0.12,-0.666 0.112,-0.666C0.098,-0.666 0.085,-0.661 0.075,-0.651C0.065,-0.641 0.058,-0.624 0.055,-0.598L0.037,-0.598C0.038,-0.628 0.043,-0.653 0.053,-0.673C0.063,-0.693 0.078,-0.709 0.099,-0.721C0.119,-0.734 0.141,-0.74 0.164,-0.74C0.181,-0.74 0.209,-0.735 0.248,-0.725C0.288,-0.715 0.319,-0.71 0.344,-0.71C0.362,-0.71 0.379,-0.712 0.396,-0.716C0.413,-0.72 0.435,-0.728 0.462,-0.74L0.472,-0.718C0.402,-0.684 0.355,-0.651 0.331,-0.618C0.308,-0.586 0.296,-0.543 0.296,-0.489L0.296,-0.288C0.296,-0.244 0.292,-0.21 0.282,-0.186C0.272,-0.161 0.252,-0.134 0.223,-0.102C0.28,-0.127 0.319,-0.153 0.339,-0.181C0.359,-0.209 0.369,-0.25 0.369,-0.304L0.369,-0.448C0.369,-0.516 0.375,-0.563 0.386,-0.59C0.398,-0.618 0.42,-0.641 0.451,-0.661C0.482,-0.681 0.551,-0.707 0.657,-0.74ZM0.573,-0.692C0.537,-0.676 0.514,-0.663 0.501,-0.652C0.489,-0.641 0.481,-0.628 0.476,-0.612C0.471,-0.597 0.469,-0.572 0.469,-0.535L0.469,-0.335C0.469,-0.3 0.465,-0.273 0.459,-0.255C0.452,-0.237 0.44,-0.219 0.421,-0.201C0.403,-0.184 0.365,-0.159 0.309,-0.125C0.339,-0.13 0.368,-0.132 0.394,-0.132C0.439,-0.132 0.481,-0.126 0.521,-0.114L0.521,-0.521L0.543,-0.521L0.543,-0.394C0.588,-0.421 0.621,-0.448 0.643,-0.477C0.664,-0.505 0.675,-0.536 0.675,-0.569C0.675,-0.597 0.666,-0.62 0.65,-0.64C0.633,-0.659 0.607,-0.677 0.573,-0.692ZM0.543,-0.323C0.57,-0.314 0.594,-0.309 0.615,-0.309C0.637,-0.309 0.661,-0.314 0.688,-0.323C0.688,-0.346 0.682,-0.364 0.672,-0.377C0.662,-0.391 0.643,-0.404 0.615,-0.416C0.58,-0.393 0.556,-0.377 0.543,-0.371L0.543,-0.323ZM0.688,-0.302C0.66,-0.292 0.636,-0.287 0.615,-0.287C0.593,-0.287 0.569,-0.292 0.543,-0.302L0.543,-0.215C0.568,-0.224 0.591,-0.229 0.613,-0.229C0.634,-0.229 0.659,-0.224 0.688,-0.215L0.688,-0.302ZM0.688,-0.192C0.658,-0.203 0.632,-0.208 0.611,-0.208C0.59,-0.208 0.567,-0.203 0.543,-0.192L0.543,-0.105C0.557,-0.099 0.57,-0.092 0.583,-0.084C0.616,-0.102 0.651,-0.115 0.688,-0.125L0.688,-0.192Z" style="fill:rgb(167,129,103);fill-rule:nonzero;"/>
            </g>
        </g>
    </g>
</svg>
