<?xml version="1.0" encoding="UTF-8" standalone="no"?>
<!DOCTYPE svg PUBLIC "-//W3C//DTD SVG 1.1//EN" "http://www.w3.org/Graphics/SVG/1.1/DTD/svg11.dtd">
<svg width="100%" height="100%" viewBox="0 0 756 753" version="1.1" xmlns="http://www.w3.org/2000/svg" xmlns:xlink="http://www.w3.org/1999/xlink" xml:space="preserve" xmlns:serif="http://www.serif.com/" style="fill-rule:evenodd;clip-rule:evenodd;stroke-linejoin:round;stroke-miterlimit:2;">
    <g transform="matrix(1,0,0,1,-645.966,-6074.22)">
        <g transform="matrix(2.02492,0,0,2.35797,0,0)">
            <g transform="matrix(486.957,0,0,418.177,310.211,2879.26)">
                <path d="M0.018,-0.725L0.041,-0.725C0.046,-0.709 0.055,-0.697 0.067,-0.69C0.083,-0.681 0.108,-0.677 0.143,-0.677C0.166,-0.677 0.237,-0.679 0.357,-0.684C0.43,-0.687 0.475,-0.688 0.493,-0.688C0.547,-0.688 0.593,-0.679 0.631,-0.66C0.669,-0.642 0.699,-0.613 0.723,-0.575C0.747,-0.536 0.763,-0.483 0.771,-0.416C0.776,-0.369 0.781,-0.265 0.785,-0.104C0.721,-0.064 0.672,-0.029 0.638,0C0.535,-0.029 0.443,-0.043 0.364,-0.043C0.311,-0.043 0.261,-0.037 0.215,-0.024C0.169,-0.011 0.121,0.01 0.069,0.038L0.055,0.019C0.122,-0.015 0.18,-0.051 0.231,-0.087C0.281,-0.123 0.315,-0.155 0.331,-0.184C0.347,-0.212 0.355,-0.248 0.355,-0.292C0.355,-0.308 0.355,-0.332 0.354,-0.363C0.353,-0.385 0.353,-0.408 0.353,-0.431C0.353,-0.472 0.355,-0.503 0.36,-0.522C0.365,-0.542 0.375,-0.564 0.39,-0.59L0.377,-0.59C0.337,-0.567 0.311,-0.546 0.298,-0.528C0.285,-0.509 0.278,-0.485 0.278,-0.456L0.282,-0.283C0.282,-0.237 0.268,-0.195 0.241,-0.159C0.213,-0.122 0.147,-0.069 0.041,0L0.027,-0.019C0.08,-0.056 0.115,-0.087 0.132,-0.111C0.149,-0.134 0.158,-0.159 0.158,-0.185C0.158,-0.208 0.151,-0.227 0.136,-0.242C0.122,-0.258 0.106,-0.266 0.089,-0.266C0.08,-0.266 0.072,-0.264 0.064,-0.259C0.057,-0.254 0.047,-0.244 0.034,-0.229L0.018,-0.244C0.029,-0.272 0.044,-0.293 0.062,-0.306C0.081,-0.319 0.103,-0.325 0.129,-0.325C0.136,-0.325 0.144,-0.324 0.153,-0.323C0.162,-0.321 0.172,-0.319 0.183,-0.315C0.182,-0.334 0.182,-0.351 0.182,-0.365C0.182,-0.416 0.192,-0.457 0.213,-0.49C0.233,-0.522 0.273,-0.555 0.331,-0.59C0.278,-0.584 0.231,-0.582 0.192,-0.582C0.151,-0.582 0.115,-0.587 0.086,-0.599C0.063,-0.608 0.047,-0.623 0.037,-0.643C0.026,-0.663 0.02,-0.69 0.018,-0.725ZM0.414,-0.59C0.4,-0.566 0.39,-0.545 0.385,-0.528C0.379,-0.504 0.375,-0.481 0.375,-0.461L0.379,-0.268C0.379,-0.244 0.373,-0.218 0.361,-0.193C0.352,-0.174 0.334,-0.15 0.308,-0.122C0.355,-0.13 0.392,-0.134 0.417,-0.133L0.444,-0.133L0.444,-0.59L0.414,-0.59ZM0.469,-0.402C0.489,-0.388 0.507,-0.379 0.521,-0.374C0.536,-0.368 0.552,-0.366 0.57,-0.366C0.587,-0.366 0.603,-0.368 0.618,-0.374C0.633,-0.379 0.651,-0.389 0.671,-0.402C0.665,-0.476 0.646,-0.525 0.614,-0.551C0.582,-0.577 0.534,-0.59 0.469,-0.59L0.469,-0.402ZM0.469,-0.241C0.491,-0.254 0.51,-0.263 0.526,-0.267C0.542,-0.272 0.559,-0.274 0.577,-0.274C0.595,-0.274 0.612,-0.272 0.627,-0.268C0.642,-0.263 0.661,-0.255 0.682,-0.243L0.674,-0.375C0.653,-0.363 0.635,-0.354 0.62,-0.349C0.605,-0.345 0.588,-0.342 0.57,-0.342C0.553,-0.342 0.536,-0.345 0.519,-0.351C0.502,-0.356 0.486,-0.364 0.469,-0.375L0.469,-0.241ZM0.469,-0.131C0.509,-0.128 0.541,-0.124 0.566,-0.119C0.591,-0.115 0.63,-0.105 0.683,-0.09C0.684,-0.139 0.684,-0.164 0.684,-0.166C0.684,-0.17 0.684,-0.186 0.683,-0.213C0.662,-0.227 0.644,-0.237 0.628,-0.243C0.612,-0.248 0.595,-0.251 0.577,-0.251C0.558,-0.251 0.54,-0.248 0.524,-0.243C0.508,-0.237 0.49,-0.227 0.469,-0.213L0.469,-0.131Z" style="fill:rgb(167,129,103);fill-rule:nonzero;"/>
            </g>
        </g>
    </g>
</svg>
