<?xml version="1.0" encoding="UTF-8" standalone="no"?>
<!DOCTYPE svg PUBLIC "-//W3C//DTD SVG 1.1//EN" "http://www.w3.org/Graphics/SVG/1.1/DTD/svg11.dtd">
<svg width="100%" height="100%" viewBox="0 0 823 670" version="1.1" xmlns="http://www.w3.org/2000/svg" xmlns:xlink="http://www.w3.org/1999/xlink" xml:space="preserve" xmlns:serif="http://www.serif.com/" style="fill-rule:evenodd;clip-rule:evenodd;stroke-linejoin:round;stroke-miterlimit:2;">
    <g transform="matrix(1,0,0,1,-654.075,-1422.84)">
        <g transform="matrix(2.02492,0,0,2.35797,0,0)">
            <g transform="matrix(0.63033,0,0,0.541299,-1817.69,-380.459)">
                <g transform="matrix(1,0,0,1,0.648294,0)">
                    <path d="M3439.49,1818.15C3443.18,1819.24 3444.23,1819.31 3447.57,1821.3C3452.97,1824.53 3456.5,1830.2 3459.56,1835.38C3480.43,1870.55 3502.41,1905.37 3530.87,1935.19C3541.96,1946.81 3553.71,1958.86 3568.96,1963.44C3571.89,1964.32 3575.07,1964.81 3577.9,1963.7C3577.9,1963.7 3582.55,1959.76 3586.37,1956.81C3631.94,1921.65 3692.14,1905.88 3749.56,1914.45C3789.12,1920.35 3826.92,1937.64 3857.36,1963.7C3857.49,1963.75 3857.62,1963.8 3857.75,1963.84C3862.09,1965.33 3866.99,1963.49 3871.09,1961.6C3884.58,1955.38 3895.58,1944.6 3905.96,1933.52C3934.65,1902.91 3957.26,1866.78 3978.57,1830.49L3981.08,1826.93C3982.1,1825.9 3983.04,1824.78 3984.15,1823.84C3994.08,1815.37 4010.45,1815.94 4019.75,1825.45C4024.33,1830.12 4026.3,1836.7 4027.93,1842.85C4044.9,1906.93 4044.73,1976.36 4017.72,2037.13C3999.16,2078.88 3969.19,2115.57 3932.24,2141.68C3929.02,2188.84 3909.64,2235.24 3877.68,2270.83C3842.85,2309.61 3793.77,2335.14 3741.61,2340.95C3681.77,2347.61 3619.59,2327.94 3574.47,2287.66C3535.97,2253.29 3510.36,2204.96 3504.1,2153.18C3503.64,2149.36 3503.28,2145.53 3503.02,2141.68C3453.67,2106.94 3416.39,2052.2 3402.32,1991.64C3390.5,1940.75 3394.94,1886.76 3409.02,1836.65L3410.55,1832.57C3411.27,1831.31 3411.9,1829.99 3412.73,1828.8C3416.05,1824.02 3420.99,1820.43 3426.56,1818.73C3430.29,1817.6 3431.32,1817.79 3435.17,1817.62C3436.61,1817.8 3438.05,1817.97 3439.49,1818.15ZM3986.88,1915.08C3964.66,1947.2 3941.14,1978.84 3907.99,2000.61C3892.35,2010.89 3874.1,2018.05 3855.17,2016.32C3846.12,2015.5 3837.28,2012.6 3829.41,2008.01L3827.3,2006.63C3820.72,2001.38 3814.02,1995.64 3806.72,1990.86C3762.61,1961.94 3704.39,1956.13 3654.87,1976.87C3638.49,1983.72 3623.31,1993.29 3609.94,2005.05C3609.94,2005.05 3609.35,2005.56 3609.35,2005.56L3605.85,2008C3593.72,2015.09 3579.3,2017.88 3565.27,2015.95C3543.2,2012.92 3523.6,1999.68 3507.18,1984.97C3484.51,1964.65 3465.83,1940.3 3448.38,1915.08L3448.1,1914.67C3446.14,1946.99 3450.55,1979.78 3462.6,2009.63C3477.41,2046.3 3503.26,2078.88 3535.72,2100.79C3537.55,2102.03 3539.4,2103.26 3541.33,2104.35L3541.38,2104.37C3546.95,2108.06 3551.61,2113.11 3553.57,2119.35C3554.72,2123.02 3554.75,2123.77 3554.77,2128.24C3555.18,2179.4 3580.92,2229.58 3623,2259.71C3665.34,2290.01 3722.59,2298.32 3772.19,2280.67C3831.56,2259.53 3876.7,2201.93 3880.25,2136.1C3880.41,2133.12 3880.49,2130.14 3880.49,2127.16C3880.49,2127.16 3880.79,2123.24 3880.79,2123.24L3881.68,2119.38C3882.17,2118.16 3882.57,2116.89 3883.14,2115.71C3884.88,2112.15 3887.44,2109 3890.56,2106.57C3893.54,2104.25 3896.95,2102.56 3900.11,2100.41C3943.28,2070.95 3973.85,2023.46 3983.73,1971.92C3987.34,1953.13 3988.3,1933.87 3987.17,1914.83C3987.17,1914.83 3987.48,1914.21 3986.88,1915.08ZM3858.08,1964.31C3858.52,1964.7 3858.97,1965.09 3859.42,1965.48C3859.42,1965.48 3857.34,1963.68 3858.08,1964.31Z" style="fill:rgb(167,129,103);"/>
                </g>
                <g transform="matrix(1,0,0,1,-5.89652,0)">
                    <path d="M3583.68,2053.85C3584.55,2053.91 3584.77,2053.91 3585.64,2054.02C3587.93,2054.3 3590.19,2054.89 3592.32,2055.76C3593.13,2056.09 3593.33,2056.2 3594.12,2056.58L3688.61,2103.82C3701.45,2110.55 3707.14,2128.11 3699.08,2141.01C3692.28,2151.91 3677.15,2156.21 3665.25,2150.54L3570.76,2103.29C3562.16,2098.79 3556.42,2089.67 3556.33,2080.18C3556.2,2066.74 3567.78,2054.22 3581.7,2053.83C3582.36,2053.81 3583.02,2053.83 3583.68,2053.85Z" style="fill:rgb(167,129,103);"/>
                </g>
                <g transform="matrix(1,0,0,1,-5.89652,0)">
                    <path d="M3866.65,2053.83C3877.31,2054.34 3887.19,2061.53 3890.6,2071.44C3894.66,2083.25 3888.81,2097.41 3877.59,2103.29L3783.1,2150.54C3773.48,2155.12 3761.36,2153.47 3753.66,2146.33C3744.51,2137.84 3742.73,2122.52 3750.09,2112.11C3752.56,2108.61 3755.95,2105.81 3759.74,2103.82L3854.23,2056.58C3855.02,2056.2 3855.21,2056.09 3856.03,2055.76C3857.25,2055.26 3858.5,2054.86 3859.78,2054.55C3861.07,2054.24 3862.37,2054.03 3863.68,2053.91C3865.6,2053.75 3866.04,2053.82 3866.65,2053.83Z" style="fill:rgb(167,129,103);"/>
                </g>
            </g>
        </g>
    </g>
</svg>
