<?xml version="1.0" encoding="UTF-8" standalone="no"?>
<!DOCTYPE svg PUBLIC "-//W3C//DTD SVG 1.1//EN" "http://www.w3.org/Graphics/SVG/1.1/DTD/svg11.dtd">
<svg width="100%" height="100%" viewBox="0 0 756 756" version="1.1" xmlns="http://www.w3.org/2000/svg" xmlns:xlink="http://www.w3.org/1999/xlink" xml:space="preserve" xmlns:serif="http://www.serif.com/" style="fill-rule:evenodd;clip-rule:evenodd;stroke-linejoin:round;stroke-miterlimit:2;">
    <g transform="matrix(1,0,0,1,-3692.75,-4434.36)">
        <g transform="matrix(2.02492,0,0,2.35797,0,0)">
            <g id="mountains" transform="matrix(0.493847,0,0,0.424094,1743.02,1426.58)">
                <g id="water" transform="matrix(2.04175,0,0,2.04175,-472.758,465.812)">
                    <rect x="311.512" y="296.179" width="370.224" height="370.224" style="fill:rgb(107,50,50);"/>
                </g>
                <g transform="matrix(1,0,0,1,-6209.5,-2668.87)">
                    <path d="M7034.19,4322.99L6467.26,4322.99C6463.82,4322.58 6462.81,4322.77 6459.66,4321.16C6453.85,4318.18 6450.09,4311.5 6450.65,4304.9C6450.95,4301.38 6451.65,4300.62 6453.12,4297.49L6642.1,3995.13C6644.47,3992.15 6647.19,3989.47 6650.72,3988.24C6653.06,3987.41 6655.6,3987.4 6658.1,3987.4C6661.81,3988.25 6665.4,3989.55 6668.04,3992.2C6668.92,3993.08 6669.59,3994.15 6670.37,3995.13L6703.48,4048.11L6736.58,3995.14L6736.59,3995.13L6783.83,3919.54C6785.08,3917.67 6786.66,3916.08 6788.47,3914.83C6789.68,3913.91 6791,3913.15 6792.45,3912.64C6793.41,3912.31 6794.4,3912.11 6795.41,3911.99C6796.57,3911.78 6797.76,3911.7 6798.96,3911.73C6799.19,3911.76 6799.42,3911.78 6799.65,3911.81L6799.84,3911.81L6800.13,3911.88C6802.41,3912.23 6804.57,3913.02 6806.5,3914.18C6807.69,3914.84 6808.8,3915.63 6809.77,3916.61C6810.19,3917.02 6810.56,3917.48 6810.91,3917.95C6811.33,3918.45 6811.73,3918.98 6812.1,3919.53L6812.1,3919.54L7048.32,4297.49C7049.8,4300.62 7050.49,4301.38 7050.79,4304.9C7051.36,4311.51 7047.62,4318.17 7041.78,4321.16C7038.63,4322.77 7037.63,4322.58 7034.19,4322.99ZM6863.62,4289.66L7004.12,4289.66L6845.21,4035.41L6812.1,4088.39C6811.61,4089.12 6811.5,4089.31 6810.95,4090C6804.78,4097.67 6791.42,4098.01 6784.98,4090C6784.43,4089.31 6784.32,4089.12 6783.83,4088.39L6750.72,4035.41L6727.72,4072.21L6727.72,4072.21L6591.82,4289.66L6591.82,4289.66L6863.62,4289.66ZM6683.82,4079.55L6656.23,4035.41C6603.27,4120.16 6550.3,4204.91 6497.33,4289.66L6552.51,4289.66L6683.82,4079.55ZM6797.97,3959.82L6770.38,4003.96L6797.97,4048.11L6825.56,4003.96L6797.97,3959.82Z" style="fill:white;"/>
                </g>
            </g>
        </g>
    </g>
</svg>
