<?xml version="1.0" encoding="UTF-8" standalone="no"?>
<!DOCTYPE svg PUBLIC "-//W3C//DTD SVG 1.1//EN" "http://www.w3.org/Graphics/SVG/1.1/DTD/svg11.dtd">
<svg width="100%" height="100%" viewBox="0 0 756 756" version="1.1" xmlns="http://www.w3.org/2000/svg" xmlns:xlink="http://www.w3.org/1999/xlink" xml:space="preserve" xmlns:serif="http://www.serif.com/" style="fill-rule:evenodd;clip-rule:evenodd;stroke-linejoin:round;stroke-miterlimit:2;">
    <g transform="matrix(1,0,0,1,-3666.8,-6372.78)">
        <g transform="matrix(2.02492,0,0,2.35797,0,0)">
            <g id="ruins" transform="matrix(0.493847,0,0,0.424094,1730.21,2248.65)">
                <g id="water" transform="matrix(2.04175,0,0,2.04175,-472.758,465.812)">
                    <rect x="311.512" y="296.179" width="370.224" height="370.224" style="fill:none;"/>
                </g>
                <g transform="matrix(2.02492,0,0,2.35797,-2451.45,-5302.24)">
                    <g transform="matrix(8.42381e-18,0.11814,-0.220483,1.15938e-17,1680.89,1781.13)">
                        <path d="M9941.16,934.552C9941.16,934.552 9862.85,934.552 9812.06,934.552C9788.64,934.552 9769.66,946.396 9769.66,961.007C9769.66,1037.01 9769.66,1255.38 9769.66,1331.37C9769.66,1345.98 9788.64,1357.83 9812.06,1357.83C9862.85,1357.83 9941.16,1357.83 9941.16,1357.83L9941.16,934.552Z" style="fill:rgb(167,129,103);"/>
                    </g>
                    <g transform="matrix(8.42381e-18,0.11814,-0.220483,1.15938e-17,1809.18,1781.13)">
                        <path d="M9941.16,934.552C9941.16,934.552 9862.85,934.552 9812.06,934.552C9788.64,934.552 9769.66,946.396 9769.66,961.007C9769.66,1037.01 9769.66,1255.38 9769.66,1331.37C9769.66,1345.98 9788.64,1357.83 9812.06,1357.83C9862.85,1357.83 9941.16,1357.83 9941.16,1357.83L9941.16,934.552Z" style="fill:rgb(167,129,103);"/>
                    </g>
                    <g transform="matrix(8.42381e-18,0.11814,-0.275626,1.44934e-17,1744.09,1806.33)">
                        <path d="M9941.16,934.552C9941.16,934.552 9862.85,934.552 9812.06,934.552C9788.64,934.552 9769.66,944.026 9769.66,955.714C9769.66,1027.97 9769.66,1264.41 9769.66,1336.67C9769.66,1348.35 9788.64,1357.83 9812.06,1357.83C9862.85,1357.83 9941.16,1357.83 9941.16,1357.83L9941.16,934.552Z" style="fill:rgb(167,129,103);"/>
                    </g>
                    <g transform="matrix(8.42381e-18,0.11814,-0.275626,1.44934e-17,1872.38,1806.33)">
                        <path d="M9941.16,934.552C9941.16,934.552 9862.85,934.552 9812.06,934.552C9788.64,934.552 9769.66,944.026 9769.66,955.714C9769.66,1027.97 9769.66,1264.41 9769.66,1336.67C9769.66,1348.35 9788.64,1357.83 9812.06,1357.83C9862.85,1357.83 9941.16,1357.83 9941.16,1357.83L9941.16,934.552Z" style="fill:rgb(167,129,103);"/>
                    </g>
                    <g transform="matrix(0.493847,0,0,0.424094,-3431.55,2373.75)">
                        <path d="M10126.3,1041.86C10126.4,1044.43 10125.4,1046.93 10123.6,1048.78C10121.8,1050.63 10119.4,1051.67 10116.8,1051.67L10111.5,1051.67C10109,1051.67 10106.5,1050.66 10104.7,1048.88C10104.1,1048.25 10103.4,1047.56 10102.7,1046.87C10099.7,1043.82 10099.1,1039.1 10101.2,1035.36C10103.5,1031.46 10106.4,1026.42 10108.8,1022.27C10111.3,1017.93 10116.8,1016.39 10121.2,1018.79C10121.2,1018.79 10121.2,1018.79 10121.2,1018.79C10124,1020.33 10125.8,1023.23 10125.9,1026.43C10126,1030.64 10126.2,1036.72 10126.3,1041.86Z" style="fill:rgb(167,129,103);"/>
                    </g>
                    <g transform="matrix(0.493847,0,0,0.424094,-3431.55,2365.24)">
                        <path d="M10171.2,1061.84C10171.2,1060.8 10170.8,1059.81 10170,1059.07C10169.3,1058.33 10168.3,1057.92 10167.2,1057.92C10161.2,1057.92 10149.6,1057.92 10142.2,1057.92C10140.8,1057.92 10139.6,1058.65 10138.9,1059.84C10138.1,1061.02 10138.1,1062.5 10138.8,1063.71C10144.3,1073.99 10156.1,1095.67 10163.8,1109.91C10164.7,1111.49 10166.5,1112.29 10168.2,1111.85C10170,1111.41 10171.2,1109.84 10171.2,1108.05C10171.2,1092.86 10171.2,1070.74 10171.2,1061.84Z" style="fill:rgb(167,129,103);"/>
                    </g>
                    <g transform="matrix(8.33023e-18,0.116828,-0.302057,1.58832e-17,1774.39,1603.74)">
                        <rect x="9769.66" y="934.552" width="171.5" height="423.277" style="fill:rgb(167,129,103);"/>
                    </g>
                    <g transform="matrix(0.493847,0,0,0.450012,-3611.95,2351.05)">
                        <ellipse cx="10076.4" cy="920.173" rx="46.958" ry="44.523" style="fill:rgb(167,129,103);"/>
                    </g>
                    <g transform="matrix(0.493847,0,0,0.450012,-3484.1,2351.05)">
                        <ellipse cx="10076.4" cy="920.173" rx="46.958" ry="44.523" style="fill:rgb(167,129,103);"/>
                    </g>
                    <g transform="matrix(0.493847,0,0,0.424094,-3452.18,2395.41)">
                        <path d="M10185.9,1072.45L10213,1072.45C10213,1072.45 10213,1208.26 10213,1249.62C10213,1252.75 10211.7,1255.75 10209.5,1257.97C10207.3,1260.18 10204.3,1261.43 10201.1,1261.43C10174.5,1261.43 10109.7,1261.43 10083,1261.43C10079.9,1261.43 10076.9,1260.18 10074.7,1257.97C10072.5,1255.75 10071.2,1252.75 10071.2,1249.62L10071.2,1072.45L10098.3,1072.45L10098.3,1237.8C10098.4,1240.17 10098.8,1240.82 10099.4,1241.97C10103.2,1248.43 10113.7,1245.79 10114.9,1239.25C10115,1238.61 10115,1238.45 10115,1237.8L10115,1072.45L10133.8,1072.45L10133.8,1237.8C10133.9,1240.39 10134.3,1241.09 10135.1,1242.31C10139.5,1249.12 10150.1,1244.99 10150.4,1237.8L10150.4,1072.45L10169.2,1072.45L10169.2,1237.8C10169.2,1238.49 10169.2,1238.66 10169.3,1239.34C10169.7,1241.11 10170.6,1242.75 10171.9,1243.96C10177,1248.55 10185.6,1244.39 10185.9,1237.8L10185.9,1072.45ZM10098.3,1072.45L10071.2,1072.45C10071.2,1072.45 10124.6,1023.06 10138.7,1009.99C10140.9,1007.96 10143.7,1006.84 10146.7,1006.84C10152.8,1006.84 10163.4,1006.84 10170.4,1006.84C10174.7,1006.84 10178.7,1009.22 10180.8,1013.03L10213,1072.45L10185.9,1072.45L10185.9,1056.66C10185.7,1052.39 10182.5,1048.95 10178.3,1048.37C10173.4,1048.14 10169.4,1051.95 10169.2,1056.66L10169.2,1072.45L10150.4,1072.45L10150.4,1039.65C10150.2,1035.52 10147.3,1032.16 10143.3,1031.4C10138.1,1030.9 10134,1034.83 10133.8,1039.65L10133.8,1072.45L10115,1072.45L10115,1072.45C10114.8,1068.2 10111.5,1064.69 10107.4,1064.15C10102.5,1063.94 10098.5,1067.74 10098.3,1072.45L10098.3,1072.45Z" style="fill:rgb(167,129,103);"/>
                    </g>
                    <g transform="matrix(0.493847,0,0,0.424094,-3452.18,2395.41)">
                        <path d="M9941.85,883.473C9948.1,883.473 9953.18,888.554 9953.18,894.812L9953.18,1250.09C9953.18,1256.35 9948.1,1261.43 9941.85,1261.43L9822.79,1261.43C9816.53,1261.43 9811.45,1256.35 9811.45,1250.09L9811.45,894.812C9811.45,888.554 9816.53,883.473 9822.79,883.473L9941.85,883.473ZM9920.33,899.17C9922.72,900.391 9924.87,902.048 9925.68,904.52C9925.95,905.347 9925.95,906.237 9926.09,907.095L9926.09,1237.8C9925.73,1240.05 9925.89,1240.79 9924.49,1242.7C9921.49,1246.84 9914.24,1247.15 9911.01,1242.7C9909.62,1240.79 9909.77,1240.05 9909.42,1237.8L9909.42,907.095C9909.69,905.368 9910,903.595 9911.01,902.197C9912.54,900.094 9915.09,899.183 9917.75,898.762C9918.61,898.898 9919.47,899.034 9920.33,899.17ZM9884.89,899.17C9887.29,900.391 9889.44,902.048 9890.24,904.52C9890.51,905.347 9890.52,906.237 9890.65,907.095L9890.65,1237.8C9890.3,1240.05 9890.45,1240.79 9889.06,1242.7C9886.03,1246.88 9878.77,1247.1 9875.58,1242.7C9874.19,1240.79 9874.34,1240.05 9873.99,1237.8L9873.99,907.095C9874.26,905.368 9874.56,903.595 9875.58,902.197C9877.1,900.094 9879.66,899.183 9882.32,898.762C9883.18,898.898 9884.03,899.034 9884.89,899.17ZM9849.46,899.17C9851.86,900.391 9854.01,902.048 9854.81,904.52C9855.08,905.347 9855.08,906.237 9855.22,907.095L9855.22,1237.8C9854.86,1240.05 9855.02,1240.79 9853.63,1242.7C9850.65,1246.81 9843.36,1247.12 9840.14,1242.7C9838.75,1240.79 9838.91,1240.05 9838.55,1237.8L9838.55,907.095C9838.83,905.368 9839.13,903.595 9840.14,902.197C9841.67,900.094 9844.23,899.183 9846.89,898.762C9847.74,898.898 9848.6,899.034 9849.46,899.17Z" style="fill:rgb(167,129,103);"/>
                    </g>
                </g>
            </g>
        </g>
    </g>
</svg>
