<?xml version="1.0" encoding="UTF-8" standalone="no"?>
<!DOCTYPE svg PUBLIC "-//W3C//DTD SVG 1.1//EN" "http://www.w3.org/Graphics/SVG/1.1/DTD/svg11.dtd">
<svg width="100%" height="100%" viewBox="0 0 756 756" version="1.1" xmlns="http://www.w3.org/2000/svg" xmlns:xlink="http://www.w3.org/1999/xlink" xml:space="preserve" xmlns:serif="http://www.serif.com/" style="fill-rule:evenodd;clip-rule:evenodd;stroke-linecap:round;stroke-linejoin:round;stroke-miterlimit:1.5;">
    <g transform="matrix(1,0,0,1,-3687.79,-53.0547)">
        <g transform="matrix(2.02492,0,0,2.35797,0,0)">
            <g id="water" transform="matrix(0.493847,0,0,0.424094,1208.76,-36.7401)">
                <g id="water1" serif:id="water" transform="matrix(2.04175,0,0,2.04175,604.128,-465.038)">
                    <rect x="311.512" y="296.179" width="370.224" height="370.224" style="fill:rgb(77,104,200);"/>
                </g>
                <g transform="matrix(0.375,0,0,0.375,1283.89,-747.342)">
                    <g transform="matrix(0.5,0,0,0.5,-142.466,1523.51)">
                        <path d="M555.648,2565.69C555.648,2565.69 555.954,2187.74 933.601,2187.74C1311.25,2187.74 1311.55,2565.69 1311.55,2565.69" style="fill:none;stroke:rgb(214,223,254);stroke-width:177.78px;"/>
                    </g>
                    <g transform="matrix(0.5,0,0,0.5,613.44,1523.51)">
                        <path d="M555.648,2565.69C555.648,2565.69 555.954,2187.74 933.601,2187.74C1311.25,2187.74 1311.55,2565.69 1311.55,2565.69" style="fill:none;stroke:rgb(214,223,254);stroke-width:177.78px;"/>
                    </g>
                    <g transform="matrix(-0.5,-6.12323e-17,6.12323e-17,-0.5,1169.09,4089.2)">
                        <path d="M555.648,2565.69C555.648,2565.69 555.954,2187.74 933.601,2187.74C1311.25,2187.74 1311.55,2565.69 1311.55,2565.69" style="fill:none;stroke:rgb(214,223,254);stroke-width:177.78px;"/>
                    </g>
                    <g transform="matrix(-0.5,-6.12323e-17,6.12323e-17,-0.5,1924.99,4089.2)">
                        <path d="M555.648,2565.69C555.648,2565.69 555.954,2187.74 933.601,2187.74C1311.25,2187.74 1311.55,2565.69 1311.55,2565.69" style="fill:none;stroke:rgb(214,223,254);stroke-width:177.78px;"/>
                    </g>
                </g>
                <g transform="matrix(0.375,0,0,0.375,1283.89,-322.145)">
                    <g transform="matrix(0.5,0,0,0.5,-142.466,1523.51)">
                        <path d="M555.648,2565.69C555.648,2565.69 555.954,2187.74 933.601,2187.74C1311.25,2187.74 1311.55,2565.69 1311.55,2565.69" style="fill:none;stroke:rgb(214,223,254);stroke-width:177.78px;"/>
                    </g>
                    <g transform="matrix(0.5,0,0,0.5,613.44,1523.51)">
                        <path d="M555.648,2565.69C555.648,2565.69 555.954,2187.74 933.601,2187.74C1311.25,2187.74 1311.55,2565.69 1311.55,2565.69" style="fill:none;stroke:rgb(214,223,254);stroke-width:177.78px;"/>
                    </g>
                    <g transform="matrix(-0.5,-6.12323e-17,6.12323e-17,-0.5,1169.09,4089.2)">
                        <path d="M555.648,2565.69C555.648,2565.69 555.954,2187.74 933.601,2187.74C1311.25,2187.74 1311.55,2565.69 1311.55,2565.69" style="fill:none;stroke:rgb(214,223,254);stroke-width:177.78px;"/>
                    </g>
                    <g transform="matrix(-0.5,-6.12323e-17,6.12323e-17,-0.5,1924.99,4089.2)">
                        <path d="M555.648,2565.69C555.648,2565.69 555.954,2187.74 933.601,2187.74C1311.25,2187.74 1311.55,2565.69 1311.55,2565.69" style="fill:none;stroke:rgb(214,223,254);stroke-width:177.78px;"/>
                    </g>
                </g>
                <g transform="matrix(0.375,0,0,0.375,1283.89,-534.744)">
                    <g transform="matrix(0.5,0,0,0.5,-142.466,1523.51)">
                        <path d="M555.648,2565.69C555.648,2565.69 555.954,2187.74 933.601,2187.74C1311.25,2187.74 1311.55,2565.69 1311.55,2565.69" style="fill:none;stroke:rgb(214,223,254);stroke-width:177.78px;"/>
                    </g>
                    <g transform="matrix(0.5,0,0,0.5,613.44,1523.51)">
                        <path d="M555.648,2565.69C555.648,2565.69 555.954,2187.74 933.601,2187.74C1311.25,2187.74 1311.55,2565.69 1311.55,2565.69" style="fill:none;stroke:rgb(214,223,254);stroke-width:177.78px;"/>
                    </g>
                    <g transform="matrix(-0.5,-6.12323e-17,6.12323e-17,-0.5,1169.09,4089.2)">
                        <path d="M555.648,2565.69C555.648,2565.69 555.954,2187.74 933.601,2187.74C1311.25,2187.74 1311.55,2565.69 1311.55,2565.69" style="fill:none;stroke:rgb(214,223,254);stroke-width:177.78px;"/>
                    </g>
                    <g transform="matrix(-0.5,-6.12323e-17,6.12323e-17,-0.5,1924.99,4089.2)">
                        <path d="M555.648,2565.69C555.648,2565.69 555.954,2187.74 933.601,2187.74C1311.25,2187.74 1311.55,2565.69 1311.55,2565.69" style="fill:none;stroke:rgb(214,223,254);stroke-width:177.78px;"/>
                    </g>
                </g>
            </g>
        </g>
    </g>
</svg>
