<?xml version="1.0" encoding="UTF-8" standalone="no"?>
<!DOCTYPE svg PUBLIC "-//W3C//DTD SVG 1.1//EN" "http://www.w3.org/Graphics/SVG/1.1/DTD/svg11.dtd">
<svg width="100%" height="100%" viewBox="0 0 756 756" version="1.1" xmlns="http://www.w3.org/2000/svg" xmlns:xlink="http://www.w3.org/1999/xlink" xml:space="preserve" xmlns:serif="http://www.serif.com/" style="fill-rule:evenodd;clip-rule:evenodd;stroke-linejoin:round;stroke-miterlimit:2;">
    <g transform="matrix(1,0,0,1,-687.256,-387.769)">
        <g transform="matrix(2.02492,0,0,2.35797,0,0)">
            <g transform="matrix(1.19418,0,0,0.571058,-3923.5,-1441.44)">
                <g transform="matrix(0.446468,0,0,0.80177,1112.14,1537.37)">
                    <circle cx="5854.59" cy="1940.01" r="350.082" style="fill:rgb(230,202,85);"/>
                </g>
                <g transform="matrix(0.446468,0,0,0.80177,1112.14,1537.37)">
                    <path d="M5855.15,1589.93C5923.24,1590.09 5991.07,1610.51 6047.64,1647.99C6134.12,1705.31 6193.31,1802.16 6203.13,1907C6209.01,1969.78 6197.71,2034.07 6170.59,2090.77C6128.59,2178.55 6048.69,2247.24 5955.56,2275.29C5879.1,2298.31 5795.04,2294.33 5720.83,2263.59C5642.07,2230.96 5576.04,2168.44 5539.05,2091.73C5499.73,2010.17 5493.75,1913.02 5523.26,1826.77C5554.18,1736.39 5623.9,1659.77 5711.54,1620.44C5755.79,1600.58 5804,1590.2 5852.89,1589.93C5853.65,1589.93 5854.4,1589.93 5855.15,1589.93ZM5854.07,1616.92C5787.86,1617.08 5721.43,1638.16 5667.23,1676.83C5603.3,1722.45 5556.57,1791.62 5539.22,1869.51C5522.55,1944.33 5533.32,2025.79 5570.73,2094.36C5620.34,2185.3 5714.96,2250.09 5820.02,2261.27C5890.96,2268.82 5964.41,2252.21 6024.94,2214.53C6085.37,2176.92 6132.72,2119.51 6157.73,2051.96C6184.81,1978.85 6184.41,1897.22 6156.16,1823.89C6126.18,1746.09 6064.12,1679.98 5987.04,1645.27C5946.21,1626.88 5901.59,1617.24 5856.68,1616.93C5855.81,1616.92 5854.94,1616.92 5854.07,1616.92Z" style="fill:rgb(166,136,66);"/>
                </g>
                <g transform="matrix(0.307187,0,0,0.551648,2246.5,1683.77)">
                    <path d="M4680.67,2405.82C4680.67,2405.82 4654.26,2461.64 4673.1,2463.92C4673.74,2463.99 4659.32,2461.24 4631.97,2534.87C4626.73,2548.98 4646.49,2550.19 4656.97,2550.6C4678.41,2551.42 4633.99,2569.95 4659.79,2579.63C4685.6,2589.3 4643.26,2571.97 4658.18,2596.96C4673.1,2621.96 4662.5,2620.74 4663.02,2642.92C4663.42,2660.26 4683.98,2657.03 4692.85,2658.24C4701.72,2659.45 4736.8,2654.21 4744.46,2687.67C4752.12,2721.14 4767.03,2730.81 4769.86,2745.73C4772.68,2760.64 4770.94,2782.18 4766.23,2808.62C4765.92,2810.37 4886.77,2714.28 4902.5,2709.04C4918.22,2703.8 4972.24,2696.95 4982.32,2696.95C4992.4,2696.95 4935.55,2648.55 4949.12,2643.03C4961.26,2638.09 4946.39,2621.65 4951.42,2617.94C4969.91,2604.3 4961.05,2587.91 4968.17,2580.11C4984.8,2561.9 4975.04,2550.03 4979.38,2545.6C5016.07,2508.04 4998.15,2458.09 4990.39,2446.98C4985.63,2440.17 4989.98,2415.54 4986.36,2401.43C4982.73,2387.32 4971.44,2390.94 4965.39,2372.4C4959.34,2353.85 4940.37,2311.8 4883.55,2313.54C4869.26,2313.97 4884.15,2298.42 4825.65,2299.94C4805.24,2300.47 4718.25,2312.73 4704.14,2341.76C4690.03,2370.79 4663.9,2377.2 4674.71,2401.83C4675.98,2404.73 4680.67,2405.82 4680.67,2405.82Z" style="fill:rgb(219,191,75);"/>
                </g>
                <g transform="matrix(0.307187,0,0,0.551648,2246.5,1683.77)">
                    <path d="M4834.04,2289.24C4852.28,2289.3 4871.55,2290.7 4883.21,2302.92C4883.21,2302.92 4890.93,2302.73 4897.82,2303.41C4932.87,2306.86 4963.41,2332.38 4975.45,2369.07C4978.38,2377.87 4988.09,2382.5 4992.79,2389.8C5001.2,2402.85 4997.47,2420.77 4998.77,2437.49C4999.18,2442.76 5002.91,2447.2 5005.02,2452.51C5017.93,2484.91 5013.61,2524.14 4988.85,2551.01C4988.85,2551.01 4988.85,2552.25 4988.9,2553.08C4988.92,2553.62 4988.92,2553.62 4988.95,2554.16C4989.44,2566.24 4984.54,2577.81 4976.22,2587.01C4974.45,2588.97 4975.24,2593.83 4974.49,2598.74C4973.1,2607.89 4968.88,2616.54 4961.94,2622.97C4961.94,2622.97 4965.13,2631.97 4964.51,2638.07C4964.1,2642.11 4962.29,2646 4959.39,2648.82C4968.19,2662.64 4981.89,2673.27 4990.91,2686.95C4992.41,2689.21 4993.67,2691.72 4994.02,2694.42L4994.13,2696.02C4994.05,2698.73 4993.8,2699.08 4993.34,2700.26C4991.62,2704.64 4986.88,2707.44 4981.82,2707.55C4959.59,2708.22 4937.38,2712.08 4915.75,2716.61C4912.61,2717.27 4909.45,2717.96 4906.43,2718.91C4904.84,2719.41 4897.73,2723.79 4891.69,2727.94C4852.05,2755.14 4814.98,2786.09 4775.93,2814.86C4773.75,2816.47 4772.05,2818.06 4769.02,2818.88C4769.02,2818.88 4767.93,2819.12 4767.82,2819.13C4765.34,2819.28 4765.34,2819.13 4762.89,2818.7L4762.88,2818.7C4760.81,2817.75 4760.81,2817.74 4758.99,2816.37L4758.98,2816.37C4757.39,2814.48 4757.38,2814.47 4756.27,2812.26L4756.27,2812.25C4755.79,2810.47 4755.79,2810.47 4755.63,2808.63C4755.63,2808.63 4756.98,2800.3 4758.07,2792.77C4760.16,2778.26 4761.98,2763.48 4759.7,2749.18C4758.08,2739.05 4750.56,2730.81 4746,2722.25C4740.41,2711.74 4736.84,2700.49 4733.83,2688.83C4732.5,2683.86 4730.01,2679.1 4726,2675.85C4716.21,2667.9 4701.79,2669.81 4690.94,2668.69C4679.51,2667.59 4666.74,2668.08 4658.69,2659.52C4650,2650.28 4652.24,2634.64 4655.03,2622.13C4657.86,2609.18 4640,2597.56 4645.2,2582.65C4639.85,2576.76 4639.87,2567.49 4644.6,2560.2C4634.67,2558.74 4623.85,2554.91 4621.06,2543.76C4618.89,2535.09 4623.8,2526.24 4627.42,2517.24C4635.23,2497.8 4643.24,2477.75 4657.06,2462.51C4657.06,2462.51 4655.61,2456.8 4655.73,2452.01C4656.09,2437.48 4661.68,2423.39 4667.26,2410.01C4667.26,2410.01 4657.8,2392.96 4664.3,2378.33C4670.86,2363.58 4685.3,2354.63 4693.44,2339.42C4696.22,2334.22 4699.41,2329.24 4703.73,2325.3C4720.89,2309.63 4744.99,2303.3 4767.45,2298.03C4789.28,2292.92 4811.28,2289.2 4834.04,2289.24ZM4832.82,2310.43C4801.88,2310.54 4770.82,2316.78 4742.62,2327.47C4731.77,2331.58 4719.55,2335.85 4714.01,2345.76C4706.89,2358.48 4697.26,2369.28 4687.93,2380.58C4685.14,2383.95 4682.32,2387.74 4682.82,2392.18C4682.96,2393.39 4683.28,2394.57 4683.68,2395.72L4686.1,2396.72C4689.4,2399.42 4691.74,2403.28 4691.16,2407.32C4690.86,2409.4 4689.83,2411.23 4688.99,2413.13C4683.64,2425.25 4678.12,2437.66 4677.01,2450.9C4676.9,2452.23 4676.96,2454.19 4676.96,2454.19L4678.9,2455.04L4681.49,2457.42C4682.04,2458.45 4682.78,2459.41 4683.15,2460.51C4684.69,2465.05 4682.72,2470.37 4678.8,2472.86C4677.56,2473.65 4675.46,2474.24 4675.46,2474.24C4669.61,2478.42 4665.96,2485.6 4662.14,2492.54C4654.17,2506.97 4647.99,2522.3 4642.22,2537.72C4642.22,2537.72 4644.95,2538.82 4647.65,2539.23C4651.08,2539.74 4654.56,2539.86 4658.03,2540.04C4660.04,2540.15 4660.58,2540.23 4661.82,2540.46C4665.33,2541.1 4668.79,2543.32 4669.6,2544.06C4669.77,2544.22 4669.95,2544.39 4670.12,2544.56C4671.04,2545.51 4671.81,2546.59 4672.38,2547.76C4672.56,2548.13 4672.72,2548.5 4672.86,2548.88C4674.2,2552.49 4673.68,2553 4673.59,2554.17C4673.53,2554.91 4673.4,2555.66 4673.21,2556.38C4673.09,2556.86 4672.94,2557.33 4672.77,2557.8C4671.04,2562.45 4667.05,2565.98 4663.92,2569.7L4663.83,2569.82C4667.15,2571.06 4670.68,2571.96 4673.58,2573.66C4674.71,2574.31 4674.67,2574.38 4674.67,2574.38C4675.5,2575.1 4676.87,2576.68 4677.95,2578.44L4677.95,2578.45C4678.68,2580.61 4678.68,2580.62 4678.93,2582.89C4678.93,2582.89 4678.86,2584.55 4678.57,2585.61C4678.15,2587.22 4676.82,2589.87 4675.41,2590.78C4673.82,2591.81 4671.3,2593.08 4671.3,2593.08C4671.3,2593.08 4669.76,2593.42 4669.76,2593.42C4669.48,2593.45 4669.45,2593.51 4668.45,2593.52C4668.65,2593.87 4668.85,2594.22 4669.05,2594.58C4674.17,2603.74 4678.11,2613.86 4676.18,2624.47C4675.04,2630.74 4672.88,2636.87 4673.68,2643.59C4673.7,2643.77 4673.73,2643.95 4673.77,2644.14C4674.84,2648.93 4687.92,2647.63 4696.89,2647.87C4714.02,2648.26 4732.23,2650.89 4743.88,2663.65C4751.99,2672.54 4754.24,2685.3 4757.7,2695.86C4763.77,2714.38 4778.32,2729.58 4780.82,2747.1C4782.58,2759.39 4781.83,2771.92 4780.51,2784.31L4780.45,2784.8C4814.91,2758.37 4848.98,2730.66 4884.89,2706.96C4900.48,2696.66 4921.58,2693.62 4941.45,2690.76C4948.96,2689.68 4956.49,2688.71 4964.03,2687.85L4964.25,2687.83C4962.37,2685.71 4960.48,2683.6 4958.6,2681.48C4951.67,2673.66 4944.49,2666.07 4939.55,2656.87C4937.82,2653.65 4936.47,2650.13 4936.42,2646.42C4936.42,2646.42 4936.94,2638 4943.06,2634.24C4943.06,2634.24 4941.22,2629 4940.32,2625.13C4938.94,2619.18 4940.25,2613.17 4945.76,2608.93C4952.11,2603.94 4953.01,2595.63 4954.74,2585.36C4956.49,2575.01 4967.28,2568.32 4967.78,2557.74C4968.04,2552.19 4966.65,2546.35 4969.52,2541.24C4969.52,2541.24 4971.09,2538.96 4972.72,2537.22C4992.3,2516.45 4996.44,2483.03 4983.67,2456.56C4981.6,2452.27 4979.38,2449.24 4978.53,2445.44C4975.59,2432.28 4979.39,2418.06 4976.2,2404.52C4974.93,2399.12 4968.48,2396.22 4963.96,2391.2C4958.09,2384.69 4955.74,2375.83 4952.47,2368.03C4944.63,2349.36 4929.6,2333.26 4910.11,2327.32C4900.68,2324.44 4890.66,2324.88 4880.83,2324.06C4875.48,2323.61 4870.88,2320.61 4866.84,2316.48C4862.28,2311.93 4854.76,2311.53 4847.66,2310.95C4842.72,2310.54 4837.76,2310.43 4832.82,2310.43ZM4957.52,2645.26C4957.52,2645.26 4957.51,2645.24 4957.52,2645.26ZM4672.06,2474.46C4672.06,2474.46 4671.08,2474.33 4671.08,2474.33C4671.08,2474.33 4673.34,2474.51 4673.34,2474.51C4674.09,2474.48 4675.15,2474.26 4675.15,2474.26C4674.12,2474.33 4673.09,2474.39 4672.06,2474.46ZM4674.16,2453.42C4674.16,2453.42 4675.89,2453.55 4674.17,2453.37C4674.17,2453.39 4674.16,2453.4 4674.16,2453.42Z" style="fill:rgb(166,136,66);"/>
                </g>
                <g transform="matrix(0.307187,0,0,0.551648,2246.5,1683.77)">
                    <path d="M4864.47,2544.44C4872.1,2544.94 4876.44,2554.64 4870.76,2561.54C4861.86,2572.33 4849.09,2581.41 4835.39,2579.56C4826.66,2578.38 4818.63,2571.74 4816,2563.17C4813.82,2556.05 4822.3,2547.56 4829.98,2551.64C4834.63,2554.11 4834.64,2561.77 4841.18,2559.68C4847.2,2557.74 4852.58,2553.23 4856.12,2548.42C4856.12,2548.42 4859.59,2544.73 4863.32,2544.46C4864.06,2544.4 4864.23,2544.44 4864.47,2544.44Z" style="fill:rgb(166,136,66);"/>
                </g>
                <g transform="matrix(0.307187,0,0,0.551648,2246.5,1683.77)">
                    <path d="M4841.38,2464.76C4844.36,2464.86 4847.24,2465.75 4850.07,2466.62C4861.36,2470.03 4873.43,2471.99 4881.18,2482.7C4888.5,2492.83 4890.84,2506.03 4891.21,2517.49C4891.68,2531.79 4884.13,2544.77 4874.53,2556.62C4872.94,2558.61 4871.14,2560.58 4870.29,2562.92C4868.86,2566.87 4873.15,2578.95 4878.75,2588.53C4884.43,2598.25 4892.11,2606.68 4901.99,2612.44C4917.34,2621.39 4933.76,2628.46 4950.23,2634.69L4951.92,2635.37C4954.75,2636.94 4955.29,2637.82 4956.17,2639.42C4959.94,2646.22 4952.94,2656.64 4943.79,2653.22C4943.41,2653.08 4943.04,2652.94 4942.67,2652.8C4923.69,2645.58 4904.81,2637.66 4887.59,2626.66C4869.72,2615.24 4857.06,2595.52 4852.02,2575.12C4850.15,2567.57 4849.69,2559.61 4853.56,2552.5C4859.1,2542.31 4869.79,2534.7 4871.39,2522.77C4872.54,2514.16 4870.63,2505.02 4867.23,2497.6C4866.08,2495.09 4864.49,2492.7 4862.16,2491.13C4856.33,2487.18 4848.69,2486.71 4841.86,2484.58C4841.74,2484.54 4841.61,2484.5 4841.49,2484.47C4840.3,2484.19 4840.88,2484.12 4840,2485.53C4835.63,2492.55 4836.2,2502.19 4831.61,2510.09C4822.86,2525.12 4800.89,2534.16 4787.85,2523.05C4781.91,2518 4781.35,2509.08 4785.97,2501.73C4788.47,2497.8 4791.18,2493.63 4789.05,2488.84C4784.07,2477.65 4772.12,2469.57 4771.4,2455.87C4771.36,2455.15 4771.33,2454.43 4771.29,2453.7C4770.78,2446.12 4765.68,2439.51 4760.76,2432.93C4749.95,2418.52 4729.66,2415.34 4711.87,2414.4C4701.97,2413.88 4692,2414.14 4682.24,2415.51C4682.24,2415.51 4673.33,2415.38 4671.29,2408.69C4669.62,2403.22 4673.6,2396.89 4679.77,2396.05C4680.22,2395.99 4680.67,2395.93 4681.12,2395.87C4703.13,2393.18 4726.03,2393.72 4746.75,2400.86C4759.72,2405.33 4771.32,2413.49 4779.25,2425.13C4785.43,2434.18 4790.38,2444.05 4790.99,2455.01C4791.42,2462.11 4798.35,2467.43 4802.19,2472.72C4809.24,2482.42 4812.42,2495.32 4805.59,2507.35C4809.81,2505.67 4813.96,2502.86 4815.26,2498.66C4818.9,2486.93 4820.08,2473.5 4831.43,2467.16C4834.27,2465.58 4837.51,2464.78 4840.79,2464.75C4841.09,2464.75 4841.08,2464.75 4841.38,2464.76Z" style="fill:rgb(166,136,66);"/>
                </g>
                <g transform="matrix(0.307187,0,0,0.551648,2245.35,1683.77)">
                    <path d="M4689.23,2518.49C4692.76,2518.63 4695.76,2520.92 4698.45,2523.59C4703.76,2528.87 4707.68,2536.96 4704.15,2544.58C4698.22,2557.36 4678.73,2558.76 4663.52,2560.86C4663.52,2560.86 4658.18,2561.45 4655,2558.71C4649.9,2554.31 4651.35,2544.41 4658.18,2542.03C4660.44,2541.24 4662.89,2541.18 4665.3,2540.9C4671.67,2540.14 4678.16,2539.34 4684.02,2537.05C4684.02,2537.05 4682.47,2535.59 4682.47,2535.59C4676.94,2530.42 4679.78,2518.97 4688.5,2518.5C4688.74,2518.49 4688.99,2518.49 4689.23,2518.49ZM4663.66,2560.83C4664.16,2560.72 4663.78,2560.8 4663.66,2560.83Z" style="fill:rgb(166,136,66);"/>
                </g>
                <g transform="matrix(0.307187,0,0,0.551648,2246.5,1683.77)">
                    <path d="M4701.73,2456.92C4711.82,2457.01 4722.12,2459.7 4730.25,2465.39C4732.63,2467.06 4734.71,2469.24 4735.83,2471.93C4735.83,2471.93 4736.31,2473.31 4736.31,2473.31C4736.53,2474.14 4736.69,2475.31 4736.69,2475.31C4736.82,2476.86 4737.14,2476.11 4736.46,2479.09C4734.71,2486.77 4724.86,2490.11 4717.77,2491.5C4711.45,2492.75 4705.03,2493.42 4698.61,2493.83C4698.61,2493.83 4693.34,2493.65 4690.6,2490.6C4687.43,2487.08 4687.35,2481.28 4690.53,2477.57C4690.53,2477.57 4684.11,2475.61 4682.63,2470.71C4680.93,2465.07 4685.07,2459.22 4691.76,2457.85C4695.03,2457.18 4698.37,2456.91 4701.73,2456.92Z" style="fill:rgb(166,136,66);"/>
                </g>
                <g transform="matrix(0.307187,0,0,0.551648,2247.93,1684.69)">
                    <ellipse cx="4697.82" cy="2473.72" rx="1.689" ry="6.664" style="fill:rgb(230,202,85);"/>
                </g>
                <g transform="matrix(0.307187,0,0,0.551648,2247.93,1684.69)">
                    <path d="M4698.38,2457.26C4701.85,2457.53 4702.37,2458.26 4703.15,2458.73C4703.53,2458.96 4705.31,2460.21 4706.46,2461.87C4709.65,2466.46 4709.72,2472.5 4709.08,2477.79C4708.58,2481.94 4707.01,2486.17 4703.51,2488.48C4699.97,2490.82 4696.81,2490.26 4695.37,2489.9C4687.55,2487.95 4685.53,2476.36 4686.69,2468.79C4687.25,2465.09 4688.66,2461.26 4692.14,2458.97C4693.53,2458.05 4695.14,2457.47 4696.81,2457.3C4697.84,2457.2 4698.05,2457.25 4698.38,2457.26ZM4697.39,2470.58C4696.37,2470.66 4695.8,2470.79 4695.58,2470.85C4694.26,2471.18 4693.13,2471.08 4690.86,2473.72C4690.86,2473.72 4694.16,2476.87 4697.82,2476.87C4699.4,2476.87 4700.95,2476.47 4702.35,2475.7C4703.78,2474.9 4703.19,2475.58 4704.78,2473.72C4704.78,2473.72 4703.01,2472.13 4702.63,2471.91C4700.66,2470.71 4698.35,2470.57 4697.39,2470.58Z" style="fill:rgb(166,136,66);"/>
                </g>
                <g transform="matrix(0.307187,0,0,0.551648,2246.5,1683.77)">
                    <path d="M4709.69,2431.8C4725.07,2431.93 4740.14,2437.96 4752.13,2447.31C4758.51,2452.28 4755.99,2464.41 4747.3,2465.13C4742.65,2465.51 4738.86,2461.6 4734.61,2458.96C4721.84,2451.03 4705.24,2448.76 4691.67,2455.09C4690.52,2455.62 4689.91,2456.45 4689,2457C4686.8,2458.33 4684.37,2458.74 4681.66,2458.21C4681.66,2458.21 4680.47,2457.87 4680.47,2457.87C4679.88,2457.65 4679.65,2457.61 4678.46,2456.9C4678.46,2456.9 4677.75,2456.53 4676.61,2455.39C4676.61,2455.39 4674.58,2452.23 4674.58,2452.23C4673.56,2449.49 4673.92,2450.64 4673.88,2448.58C4673.88,2448.58 4673.81,2447.77 4674.17,2446.18C4674.17,2446.18 4674.93,2444.13 4674.93,2444.13C4675.71,2442.64 4676.03,2442.32 4676.71,2441.61C4680.67,2437.47 4686.71,2435.58 4692.56,2434C4698.13,2432.5 4703.86,2431.78 4709.69,2431.8ZM4682.14,2438.97C4682.14,2438.97 4682.24,2438.95 4682.14,2438.97ZM4682.51,2438.91C4682.51,2438.91 4682.52,2438.91 4682.51,2438.91Z" style="fill:rgb(166,136,66);"/>
                </g>
                <g transform="matrix(0.307187,0,0,0.551648,2246.5,1683.77)">
                    <path d="M4678.69,2572.92C4687.52,2572.95 4697.22,2572.59 4703.88,2575.93C4703.88,2575.93 4707.82,2578.18 4708.92,2581.95C4710.95,2588.85 4703.25,2596.96 4695.67,2593.73C4694.08,2593.05 4692.39,2593.09 4690.7,2592.95C4683.4,2592.34 4676.03,2592.43 4668.67,2592.69C4668.67,2592.69 4656.98,2589.79 4658.71,2580.99C4659.67,2576.15 4664.48,2573.18 4669.79,2573.03C4672.76,2572.96 4675.73,2572.92 4678.69,2572.92ZM4695.08,2593.46C4695.08,2593.46 4695.07,2593.45 4695.08,2593.46Z" style="fill:rgb(166,136,66);"/>
                </g>
                <g transform="matrix(0.361514,0,0,0.649208,582.101,932.023)">
                    <path d="M8570.24,3024.66C8575.74,3037.15 8568.11,3059.79 8550.75,3079.5C8546.69,3084.12 8542.4,3088.22 8538.05,3091.75C8552.66,3089.51 8565.19,3091.48 8571.88,3097.4L8572,3097.51C8571.57,3111.15 8554.93,3128.28 8530.76,3138.58C8512.4,3146.4 8494.2,3148.36 8482.07,3144.85C8477.65,3150.65 8473.43,3156.6 8469.41,3162.69C8487.93,3152.26 8506.4,3149.32 8516.51,3155.11L8445.59,3205.35C8445.59,3205.35 8516.51,3155.11 8516.51,3155.11C8518.99,3168.54 8506.34,3188.81 8484.91,3203.99C8468.78,3215.41 8451.59,3221.18 8439.02,3220.45C8436.24,3227.32 8433.68,3234.29 8431.36,3241.35C8450.04,3224.66 8471.3,3217.07 8483.52,3221.99L8421.07,3280.6C8421.07,3280.6 8483.52,3221.99 8483.52,3221.99C8487.81,3234.95 8478.06,3256.76 8458.9,3274.74C8445.45,3287.36 8430.41,3295.24 8418.26,3297.04C8416.67,3308.08 8415.64,3319.24 8415.19,3330.46C8415.09,3333.08 8415.01,3335.71 8414.97,3338.34C8416.39,3336.28 8417.91,3334.24 8419.53,3332.22C8435.95,3311.71 8456.92,3300.28 8470.18,3303.54L8415.94,3371.29C8415.94,3371.29 8470.18,3303.54 8470.18,3303.54C8476.26,3315.76 8469.7,3338.73 8453.28,3359.24C8442.16,3373.13 8428.95,3382.85 8417.46,3386.67C8418.86,3398.29 8420.85,3409.84 8423.42,3421.26C8423.72,3420.38 8424.04,3419.5 8424.37,3418.62C8433.59,3394.02 8449.98,3376.63 8463.59,3375.61L8463.7,3375.72C8473.17,3385.52 8474.04,3409.3 8464.85,3433.8C8458.49,3450.77 8448.72,3464.31 8438.8,3471.41C8442.5,3480.8 8446.62,3490.03 8451.17,3499.07C8452.97,3474.22 8462.86,3454.09 8474.99,3449.1L8471.24,3533.48C8471.24,3533.48 8474.99,3449.1 8474.99,3449.1C8487.11,3455.39 8495.35,3477.81 8494.19,3504.05C8493.39,3521.97 8488.38,3537.72 8481.27,3547.57C8489.11,3557.94 8497.65,3567.8 8506.85,3576.99C8499.18,3552.01 8501.49,3528.39 8511.58,3519.27L8511.74,3519.3C8525.23,3521.23 8540.48,3539.49 8548.24,3564.49C8553.88,3582.66 8554.23,3600.15 8550.14,3611.89C8556.91,3616.21 8563.92,3620.19 8571.15,3623.82L8572.12,3624.31L8574.55,3626.03C8576.11,3628.12 8576.83,3628.58 8577.29,3631.25C8578.11,3636.1 8574.51,3641.39 8569.49,3642.24C8566.44,3642.76 8565.32,3642.23 8562.1,3640.61C8553.01,3636.04 8544.24,3630.91 8535.8,3625.29C8525.36,3633.39 8503.89,3635.39 8481.04,3629.27C8455.67,3622.47 8436.78,3607.85 8434.44,3594.4L8434.54,3594.28C8443.13,3584.19 8465.65,3580.92 8490.12,3586.96C8480.28,3576.77 8471.15,3565.85 8462.77,3554.37C8450.68,3558.92 8431.09,3557 8411.41,3548.26C8387.4,3537.6 8371.01,3520.22 8370.79,3506.57L8455.68,3544.27C8455.68,3544.27 8370.79,3506.57 8370.79,3506.57C8381.07,3497.59 8404.95,3498.09 8428.96,3508.75C8431.68,3509.96 8434.3,3511.25 8436.81,3512.61C8431.73,3502.93 8427.13,3493.03 8423.03,3482.98C8421.58,3479.44 8420.19,3475.88 8418.86,3472.3C8406.33,3473.33 8389.03,3468.01 8372.65,3457.04C8350.82,3442.43 8337.65,3422.5 8339.77,3409.01L8339.91,3408.93C8351.62,3401.95 8374.96,3406.56 8396.71,3421.11C8399.8,3423.19 8402.72,3425.36 8405.45,3427.62C8401.88,3412.25 8399.3,3396.65 8397.72,3380.96C8385.18,3379.51 8369.16,3370.63 8355.26,3356.29C8336.99,3337.42 8328.29,3315.17 8333.19,3302.43L8333.34,3302.38C8346.25,3298.01 8368.11,3307.41 8386.32,3326.21C8389.9,3329.91 8393.12,3333.74 8395.94,3337.6C8396.19,3323.31 8397.29,3309.04 8399.24,3294.89C8387.89,3289.88 8375.37,3277.83 8365.87,3261.48C8352.68,3238.76 8349.61,3215.07 8357.43,3203.89L8357.59,3203.87C8371.17,3202.75 8390.13,3217.14 8403.26,3239.77C8405.22,3243.14 8406.95,3246.53 8408.46,3249.89C8409.84,3244.86 8411.34,3239.86 8412.95,3234.9C8416,3225.52 8419.47,3216.3 8423.34,3207.24C8413.25,3199.64 8403.91,3183.87 8399.18,3164.45C8392.97,3138.92 8396.73,3115.33 8407.4,3106.82L8428.86,3195L8407.4,3106.82C8420.79,3109.47 8434.98,3128.7 8441.19,3154.22C8442.28,3158.72 8443.07,3163.15 8443.56,3167.46C8451.12,3154.73 8459.5,3142.49 8468.64,3130.82C8460.9,3120.74 8456.31,3102.66 8457.39,3082.34C8458.78,3056.1 8469.16,3034.59 8481.83,3029.51L8481.97,3029.59C8493.1,3035.61 8500.78,3055.36 8500.72,3079.07C8504.24,3069.93 8510.21,3060.12 8518.3,3050.93C8535.6,3031.29 8556.99,3020.87 8570.09,3024.61L8570.24,3024.66Z" style="fill:rgb(166,136,66);"/>
                </g>
                <g transform="matrix(0.361514,0,0,0.649208,582.101,932.023)">
                    <path d="M8823.7,3024.61C8836.8,3020.87 8858.19,3031.29 8875.48,3050.93C8883.57,3060.12 8889.55,3069.93 8893.07,3079.07C8893.01,3055.26 8900.75,3035.45 8911.95,3029.51L8912.1,3029.57C8924.7,3034.76 8935.02,3056.21 8936.4,3082.34C8937.49,3102.99 8932.73,3121.33 8924.77,3131.31C8933.98,3143.15 8942.45,3155.63 8950.1,3168.63C8950.58,3163.96 8951.4,3159.13 8952.6,3154.22C8958.81,3128.7 8972.99,3109.47 8986.38,3106.82L8964.65,3196.11C8964.65,3196.11 8986.38,3106.82 8986.38,3106.82C8997.06,3115.33 9000.82,3138.92 8994.61,3164.45C8989.79,3184.24 8980.18,3200.24 8969.86,3207.67C8975.85,3221.63 8980.92,3236.01 8984.98,3250.69C8986.56,3247.06 8988.41,3243.41 8990.52,3239.77C9003.66,3217.14 9022.61,3202.75 9036.19,3203.87L9036.35,3203.89C9044.18,3215.07 9041.1,3238.76 9027.91,3261.48C9018.28,3278.07 9005.53,3290.23 8994.06,3295.1C8996.02,3309.41 8997.1,3323.85 8997.33,3338.32C9000.27,3334.21 9003.66,3330.14 9007.47,3326.21C9025.74,3307.34 9047.7,3297.94 9060.59,3302.43L9060.65,3302.58C9065.43,3315.34 9056.73,3337.49 9038.52,3356.29C9024.43,3370.83 9008.16,3379.75 8995.53,3381.02C8993.95,3396.88 8991.34,3412.62 8987.74,3428.11C8990.64,3425.68 8993.76,3423.34 8997.08,3421.11C9018.82,3406.56 9042.17,3401.95 9053.88,3408.93L9054.01,3409.01C9056.13,3422.5 9042.96,3442.43 9021.13,3457.04C9004.57,3468.13 8987.07,3473.45 8974.5,3472.26C8969.33,3486.21 8963.3,3499.81 8956.43,3512.92C8959.1,3511.44 8961.91,3510.05 8964.83,3508.75C8988.74,3498.13 9012.53,3497.59 9022.87,3506.47L9023,3506.57L8937.58,3544.5C8937.58,3544.5 9023,3506.57 9023,3506.57L9022.99,3506.73C9022.65,3520.36 9006.29,3537.64 8982.38,3548.26C8962.54,3557.07 8942.78,3558.95 8930.73,3554.26C8922.26,3565.85 8913.01,3576.84 8903.01,3587.13C8927.73,3580.86 8950.58,3584.1 8959.25,3594.28L8959.35,3594.4C8957.01,3607.85 8938.12,3622.47 8912.74,3629.27C8889.59,3635.47 8867.85,3633.34 8857.57,3624.95C8848.86,3630.73 8839.79,3635.98 8830.41,3640.66L8829.9,3640.91C8827.55,3641.65 8826.92,3642.15 8824.4,3641.72C8818.15,3640.67 8814.4,3631.51 8819.6,3626.41C8821.14,3624.9 8823.26,3624.11 8825.29,3623.07C8831.65,3619.79 8837.83,3616.23 8843.83,3612.41C8839.55,3600.67 8839.83,3582.93 8845.55,3564.49C8853.33,3539.39 8868.68,3521.09 8882.21,3519.27L8882.33,3519.38C8892.35,3528.61 8894.6,3552.3 8886.84,3577.3C8886.78,3577.5 8886.71,3577.71 8886.65,3577.92C8896.03,3568.56 8904.75,3558.51 8912.77,3547.91C8905.52,3538.09 8900.4,3522.18 8899.6,3504.05C8898.43,3477.81 8906.68,3455.39 8918.79,3449.1L8922.2,3525.64L8918.79,3449.1C8931.06,3454.14 8941.03,3474.65 8942.67,3499.87C8947.34,3490.64 8951.56,3481.2 8955.32,3471.64C8945.29,3464.61 8935.37,3450.96 8928.94,3433.8C8919.71,3409.2 8920.62,3385.33 8930.2,3375.61L8930.36,3375.62C8943.94,3376.77 8960.23,3394.12 8969.42,3418.62C8969.83,3419.71 8970.22,3420.8 8970.59,3421.88C8973.19,3410.31 8975.21,3398.58 8976.63,3386.77C8965.07,3383.02 8951.72,3373.25 8940.51,3359.24C8924.09,3338.73 8917.53,3315.76 8923.61,3303.54L8978.12,3371.63L8923.61,3303.54C8936.86,3300.28 8957.84,3311.71 8974.26,3332.22C8975.99,3334.38 8977.61,3336.57 8979.11,3338.76C8978.89,3324.82 8977.83,3310.89 8975.93,3297.1C8963.71,3295.41 8948.49,3287.51 8934.88,3274.74C8915.73,3256.76 8905.98,3234.95 8910.27,3221.99L8973.37,3281.21C8973.37,3281.21 8921.44,3232.48 8921.44,3232.48L8910.27,3221.99C8922.77,3216.96 8944.75,3225.03 8963.74,3242.53C8961.38,3235.05 8958.75,3227.65 8955.84,3220.37C8943.19,3221.51 8925.47,3215.74 8908.88,3203.99C8887.44,3188.81 8874.8,3168.54 8877.27,3155.11L8949.95,3206.59L8877.27,3155.11C8887.69,3149.14 8907,3152.45 8926.1,3163.68C8921.78,3157.17 8917.23,3150.81 8912.46,3144.62C8900.34,3148.44 8881.77,3146.56 8863.03,3138.58C8838.86,3128.28 8822.21,3111.15 8821.78,3097.51L8821.9,3097.4C8828.59,3091.48 8841.12,3089.51 8855.74,3091.75C8851.39,3088.22 8847.1,3084.12 8843.04,3079.5C8825.68,3059.79 8818.05,3037.15 8823.54,3024.66L8823.7,3024.61Z" style="fill:rgb(166,136,66);"/>
                </g>
            </g>
        </g>
    </g>
</svg>
