<?xml version="1.0" encoding="UTF-8" standalone="no"?>
<!DOCTYPE svg PUBLIC "-//W3C//DTD SVG 1.1//EN" "http://www.w3.org/Graphics/SVG/1.1/DTD/svg11.dtd">
<svg width="100%" height="100%" viewBox="0 0 683 756" version="1.1" xmlns="http://www.w3.org/2000/svg" xmlns:xlink="http://www.w3.org/1999/xlink" xml:space="preserve" xmlns:serif="http://www.serif.com/" style="fill-rule:evenodd;clip-rule:evenodd;stroke-linejoin:round;stroke-miterlimit:2;">
    <g transform="matrix(1,0,0,1,-657.419,-4861.73)">
        <g transform="matrix(2.02492,0,0,2.35797,0,0)">
            <g transform="matrix(514.83,0,0,442.113,294.75,2382.4)">
                <path d="M0.282,-0.669L0.294,-0.655C0.246,-0.622 0.21,-0.587 0.186,-0.55C0.155,-0.502 0.14,-0.449 0.14,-0.393C0.14,-0.324 0.163,-0.26 0.208,-0.202C0.228,-0.218 0.239,-0.232 0.243,-0.242C0.247,-0.253 0.249,-0.283 0.249,-0.332L0.249,-0.551L0.458,-0.725C0.507,-0.706 0.545,-0.693 0.573,-0.688C0.601,-0.682 0.634,-0.679 0.672,-0.679L0.683,-0.679L0.691,-0.661L0.61,-0.584C0.556,-0.59 0.495,-0.61 0.427,-0.644L0.432,-0.086L0.451,-0.086C0.497,-0.086 0.54,-0.094 0.578,-0.11C0.617,-0.126 0.657,-0.152 0.698,-0.188L0.713,-0.174C0.683,-0.132 0.653,-0.099 0.624,-0.076C0.595,-0.053 0.56,-0.035 0.519,-0.021C0.478,-0.007 0.437,0 0.396,0C0.337,0 0.28,-0.014 0.227,-0.043C0.174,-0.072 0.133,-0.114 0.103,-0.168C0.073,-0.222 0.058,-0.278 0.058,-0.335C0.058,-0.406 0.079,-0.471 0.122,-0.531C0.155,-0.578 0.208,-0.624 0.282,-0.669ZM0.405,-0.647L0.348,-0.598L0.348,-0.375C0.348,-0.347 0.346,-0.329 0.343,-0.32C0.34,-0.308 0.332,-0.295 0.321,-0.281C0.297,-0.254 0.264,-0.222 0.221,-0.186C0.247,-0.157 0.275,-0.135 0.305,-0.12C0.335,-0.104 0.37,-0.094 0.41,-0.089L0.405,-0.647Z" style="fill:rgb(167,129,103);fill-rule:nonzero;"/>
            </g>
        </g>
    </g>
</svg>
