<?xml version="1.0" encoding="UTF-8" standalone="no"?>
<!DOCTYPE svg PUBLIC "-//W3C//DTD SVG 1.1//EN" "http://www.w3.org/Graphics/SVG/1.1/DTD/svg11.dtd">
<svg width="100%" height="100%" viewBox="0 0 756 756" version="1.1" xmlns="http://www.w3.org/2000/svg" xmlns:xlink="http://www.w3.org/1999/xlink" xml:space="preserve" xmlns:serif="http://www.serif.com/" style="fill-rule:evenodd;clip-rule:evenodd;stroke-linecap:round;stroke-linejoin:round;stroke-miterlimit:1.5;">
    <g transform="matrix(1,0,0,1,-3684.23,-3507.87)">
        <g transform="matrix(2.02492,0,0,2.35797,0,0)">
            <g id="monsters-dev" serif:id="monsters dev" transform="matrix(0.493847,0,0,0.424094,1738.82,1033.66)">
                <g id="water" transform="matrix(2.04175,0,0,2.04175,-472.758,465.812)">
                    <rect x="311.512" y="296.179" width="370.224" height="370.224" style="fill:rgb(129,78,162);"/>
                </g>
                <g transform="matrix(1,0,0,1,-3177.05,-631.446)">
                    <g transform="matrix(1,0,0,1,0.648294,0)">
                        <path d="M3842.58,1985.45C3895.62,2016.58 3971.26,1894.57 4001.09,1843.72C4057.43,2043.57 3907.45,2126.71 3906.61,2127.18L3906.61,2127.18C3906.61,2231.48 3821.93,2316.16 3717.63,2316.16C3613.33,2316.16 3528.65,2231.48 3528.65,2127.18C3528.65,2127.18 3377.67,2044.13 3434.16,1843.72C3464,1894.58 3539.65,2016.59 3592.69,1985.45L3592.69,1985.45C3626,1956.05 3669.75,1938.2 3717.63,1938.2C3765.51,1938.2 3809.26,1956.05 3842.58,1985.45Z" style="fill:rgb(129,78,162);stroke:rgb(223,159,238);stroke-width:33.33px;"/>
                    </g>
                    <g transform="matrix(1,0,0,1,-5.89652,0)">
                        <path d="M3582.44,2079.93L3676.93,2127.18" style="fill:none;stroke:rgb(223,159,238);stroke-width:33.33px;"/>
                    </g>
                    <g transform="matrix(1,0,0,1,-5.89652,0)">
                        <path d="M3865.91,2079.93L3771.42,2127.18" style="fill:none;stroke:rgb(223,159,238);stroke-width:33.33px;"/>
                    </g>
                </g>
            </g>
        </g>
    </g>
</svg>
